<?xml version="1.0" encoding="UTF-8" standalone="no"?>
<!DOCTYPE svg PUBLIC "-//W3C//DTD SVG 1.1//EN" "http://www.w3.org/Graphics/SVG/1.1/DTD/svg11.dtd">
<svg version="1.1" xmlns="http://www.w3.org/2000/svg" xmlns:xlink="http://www.w3.org/1999/xlink" preserveAspectRatio="xMidYMid meet" viewBox="103.96000255999999 106.52000000000135 434.07999743999994 300.96010239999947" width="430.08" height="296.96"><defs><path d="M497.42 107.66L499.07 107.83L500.7 108.06L502.3 108.36L503.89 108.72L505.45 109.14L506.99 109.62L508.5 110.16L509.98 110.75L511.43 111.41L512.86 112.11L514.25 112.87L515.61 113.68L516.93 114.54L518.22 115.45L519.48 116.41L520.69 117.42L521.87 118.46L523 119.56L524.1 120.69L525.14 121.87L526.15 123.08L527.11 124.34L528.02 125.63L528.88 126.95L529.69 128.31L530.45 129.7L531.15 131.13L531.81 132.58L532.4 134.06L532.94 135.57L533.42 137.11L533.84 138.67L534.2 140.26L534.5 141.86L534.73 143.49L534.9 145.14L535.01 146.8L535.04 148.48L535.04 363.52L535.01 365.2L534.9 366.86L534.73 368.51L534.5 370.14L534.2 371.74L533.84 373.33L533.42 374.89L532.94 376.43L532.4 377.94L531.81 379.42L531.15 380.87L530.45 382.3L529.69 383.69L528.88 385.05L528.02 386.37L527.11 387.66L526.15 388.92L525.14 390.13L524.1 391.31L523 392.44L521.87 393.54L520.69 394.58L519.48 395.59L518.22 396.55L516.93 397.46L515.61 398.32L514.25 399.13L512.86 399.89L511.43 400.59L509.98 401.25L508.5 401.84L506.99 402.38L505.45 402.86L503.89 403.28L502.3 403.64L500.7 403.94L499.07 404.17L497.42 404.34L495.76 404.45L494.08 404.48L145.92 404.48L144.24 404.45L142.58 404.34L140.93 404.17L139.3 403.94L137.7 403.64L136.11 403.28L134.55 402.86L133.01 402.38L131.5 401.84L130.02 401.25L128.57 400.59L127.14 399.89L125.75 399.13L124.39 398.32L123.07 397.46L121.78 396.55L120.52 395.59L119.31 394.58L118.13 393.54L117 392.44L115.9 391.31L114.86 390.13L113.85 388.92L112.89 387.66L111.98 386.37L111.12 385.05L110.31 383.69L109.55 382.3L108.85 380.87L108.19 379.42L107.6 377.94L107.06 376.43L106.58 374.89L106.16 373.33L105.8 371.74L105.5 370.14L105.27 368.51L105.1 366.86L104.99 365.2L104.96 363.52L104.96 148.48L104.99 147.36L105.06 146.24L105.19 145.13L105.37 144.02L105.6 142.91L105.88 141.82L106.21 140.72L106.6 139.64L107.03 138.55L107.52 137.48L108.06 136.4L108.65 135.34L109.29 134.28L109.98 133.22L110.72 132.17L111.51 131.12L112.36 130.08L113.25 129.04L114.2 128.01L115.2 126.98L116.25 125.96L117.35 124.94L118.5 123.93L119.71 122.93L120.96 121.93L122.27 120.93L123.62 119.94L125.03 118.95L126.49 117.97L128 117L129.56 116.03L131.17 115.06L132.84 114.1L134.55 113.15L136.32 112.19L138.14 111.25L140.01 110.31L141.93 109.37L143.9 108.44L145.92 107.52L494.08 107.52L495.76 107.55L497.42 107.66ZM145.45 384L145.46 384L145.49 384L145.51 384L145.54 384L145.56 384L145.58 384L145.64 384L145.67 384L145.72 384L145.8 384L145.85 384L145.88 384L145.92 384L494.08 384L494.09 384L494.13 384L494.15 384L494.2 384L494.28 384L494.32 384L494.36 384L494.38 384L494.43 384L494.46 384L494.49 384L494.51 384L494.52 384L494.55 384L494.56 384L379.36 273.12L342.56 308.64L341.61 309.52L340.63 310.36L339.63 311.16L338.6 311.9L337.55 312.61L336.47 313.26L335.38 313.87L334.27 314.44L333.14 314.96L332 315.44L330.84 315.87L329.67 316.25L328.48 316.59L327.29 316.89L326.09 317.14L324.88 317.34L323.66 317.5L322.45 317.61L321.22 317.68L320 317.7L318.78 317.68L317.55 317.61L316.34 317.5L315.12 317.34L313.91 317.14L312.71 316.89L311.52 316.59L310.33 316.25L309.16 315.87L308 315.44L306.86 314.96L305.73 314.44L304.62 313.87L303.53 313.26L302.45 312.61L301.4 311.9L300.37 311.16L299.37 310.36L298.39 309.52L297.44 308.64L297.24 308.44L297 308.21L295.67 306.94L294.29 305.6L293.19 304.54L291.26 302.67L288.99 300.49L285.46 297.08L281.34 293.1L279.06 290.9L275.36 287.33L271.33 283.44L268.46 280.67L265.44 277.76L260.64 273.12L145.44 384L145.45 384ZM126.17 143.46L126.14 143.58L126.11 143.71L126.08 143.84L126.05 143.97L126.02 144.1L125.99 144.22L125.96 144.35L125.93 144.48L125.9 144.61L125.87 144.74L125.85 144.87L125.82 145L125.79 145.13L125.77 145.26L125.74 145.39L125.72 145.52L125.7 145.65L125.67 145.78L125.65 145.91L125.63 146.04L125.61 146.18L125.59 146.31L125.58 146.44L125.56 146.57L125.54 146.71L125.53 146.84L125.52 146.97L125.5 147.11L125.49 147.24L125.48 147.38L125.47 147.52L125.46 147.65L125.46 147.79L125.45 147.93L125.45 148.06L125.44 148.2L125.44 148.34L125.44 148.48L125.44 363.52L125.44 363.77L125.45 364.02L125.45 364.27L125.47 364.51L125.48 364.76L125.5 365L125.52 365.25L125.54 365.49L125.57 365.73L125.6 365.97L125.63 366.21L125.67 366.44L125.71 366.68L125.75 366.91L125.79 367.15L125.84 367.38L125.89 367.61L125.94 367.84L126 368.07L126.05 368.3L126.11 368.53L126.18 368.75L126.24 368.98L126.31 369.2L126.38 369.43L126.45 369.65L126.52 369.87L126.6 370.09L126.68 370.31L126.76 370.52L126.84 370.74L126.93 370.95L127.01 371.17L127.1 371.38L127.2 371.59L127.29 371.81L127.38 372.02L127.48 372.22L127.58 372.43L127.68 372.64L245.92 258.88L126.24 143.2L126.21 143.33L126.17 143.46ZM512.32 372.64L512.42 372.43L512.52 372.22L512.62 372.02L512.71 371.81L512.8 371.59L512.9 371.38L512.99 371.17L513.07 370.95L513.16 370.74L513.24 370.52L513.32 370.31L513.4 370.09L513.48 369.87L513.55 369.65L513.62 369.43L513.69 369.2L513.76 368.98L513.82 368.75L513.89 368.53L513.95 368.3L514 368.07L514.06 367.84L514.11 367.61L514.16 367.38L514.21 367.15L514.25 366.91L514.29 366.68L514.33 366.44L514.37 366.21L514.4 365.97L514.43 365.73L514.46 365.49L514.48 365.25L514.5 365L514.52 364.76L514.53 364.51L514.55 364.27L514.55 364.02L514.56 363.77L514.56 363.52L514.56 148.48L514.56 148.39L514.56 148.29L514.56 148.19L514.55 148.09L514.55 147.99L514.54 147.89L514.54 147.78L514.53 147.67L514.52 147.56L514.51 147.45L514.5 147.34L514.49 147.22L514.48 147.11L514.46 146.99L514.45 146.87L514.43 146.74L514.42 146.62L514.4 146.49L514.38 146.36L514.36 146.23L514.34 146.1L514.32 145.96L514.3 145.83L514.27 145.69L514.25 145.55L514.22 145.4L514.2 145.26L514.17 145.11L514.14 144.96L514.11 144.81L514.08 144.66L514.05 144.51L514.02 144.35L513.98 144.19L513.95 144.03L513.91 143.87L513.88 143.7L513.84 143.54L513.8 143.37L513.76 143.2L394.08 258.88L512.32 372.64ZM145.79 128L145.66 128L145.53 128L145.4 128.01L145.27 128.01L145.15 128.02L145.02 128.02L144.89 128.03L144.76 128.04L144.64 128.05L144.51 128.06L144.39 128.07L144.26 128.08L144.13 128.09L144.01 128.1L143.88 128.11L143.76 128.13L143.64 128.14L143.51 128.16L143.39 128.18L143.26 128.19L143.14 128.21L143.02 128.23L142.9 128.25L142.77 128.27L142.65 128.29L142.53 128.31L142.41 128.33L142.29 128.35L142.16 128.38L142.04 128.4L141.92 128.43L141.8 128.45L141.68 128.48L141.56 128.5L141.44 128.53L141.32 128.56L141.2 128.58L141.08 128.61L140.96 128.64L311.84 293.92L312.13 294.19L312.44 294.44L312.77 294.68L313.11 294.9L313.47 295.12L313.84 295.31L314.23 295.5L314.62 295.67L315.03 295.83L315.45 295.97L315.88 296.1L316.31 296.22L316.76 296.32L317.21 296.41L317.67 296.48L318.13 296.55L318.59 296.59L319.06 296.63L319.53 296.65L320 296.65L320.47 296.65L320.94 296.63L321.41 296.59L321.87 296.55L322.33 296.48L322.79 296.41L323.24 296.32L323.69 296.22L324.12 296.1L324.55 295.97L324.97 295.83L325.38 295.67L325.77 295.5L326.16 295.31L326.53 295.12L326.89 294.9L327.23 294.68L327.56 294.44L327.87 294.19L328.16 293.92L499.04 128.64L498.92 128.61L498.8 128.58L498.68 128.56L498.56 128.53L498.44 128.5L498.32 128.48L498.2 128.45L498.08 128.43L497.96 128.4L497.84 128.38L497.71 128.35L497.59 128.33L497.47 128.31L497.35 128.29L497.23 128.27L497.1 128.25L496.98 128.23L496.86 128.21L496.74 128.19L496.61 128.18L496.49 128.16L496.36 128.14L496.24 128.13L496.12 128.11L495.99 128.1L495.87 128.09L495.74 128.08L495.61 128.07L495.49 128.06L495.36 128.05L495.24 128.04L495.11 128.03L494.98 128.02L494.85 128.02L494.73 128.01L494.6 128.01L494.47 128L494.34 128L494.21 128L494.08 128L145.92 128L145.79 128Z" id="g1ktPAC2dt"></path></defs><g><g><use xlink:href="#g1ktPAC2dt" opacity="1" fill="#000000" fill-opacity="1"></use><g><use xlink:href="#g1ktPAC2dt" opacity="1" fill-opacity="0" stroke="#000000" stroke-width="1" stroke-opacity="0"></use></g></g></g></svg>