<?xml version="1.0" encoding="UTF-8" standalone="no"?>
<!DOCTYPE svg PUBLIC "-//W3C//DTD SVG 1.1//EN" "http://www.w3.org/Graphics/SVG/1.1/DTD/svg11.dtd">
<svg version="1.1" xmlns="http://www.w3.org/2000/svg" xmlns:xlink="http://www.w3.org/1999/xlink" preserveAspectRatio="xMidYMid meet" viewBox="101.71744000000005 101.56383999999998 438.57023999999996 310.86208000000033" width="434.57" height="306.86"><defs><path d="M411.38 102.83L414.61 103.16L417.79 103.61L420.94 104.19L424.05 104.89L427.1 105.71L430.11 106.64L433.06 107.69L435.96 108.85L438.81 110.12L441.59 111.5L444.31 112.97L446.97 114.55L449.56 116.23L452.08 118L454.53 119.87L456.9 121.83L459.19 123.87L461.4 126L463.53 128.22L465.58 130.51L467.54 132.88L469.4 135.33L471.18 137.85L472.85 140.44L474.43 143.09L475.91 145.82L477.29 148.6L478.55 151.44L479.71 154.34L480.76 157.3L481.7 160.31L482.52 163.36L483.22 166.47L483.8 169.61L484.25 172.8L484.58 176.03L484.78 179.3L484.84 182.59L484.84 199.34L498.94 199.34L498.94 201.45L523.41 201.45L523.98 201.46L524.54 201.5L525.1 201.55L525.66 201.63L526.2 201.73L526.74 201.86L527.27 202L527.79 202.16L528.3 202.34L528.81 202.54L529.3 202.76L529.78 203L530.25 203.26L530.71 203.53L531.16 203.83L531.6 204.13L532.02 204.46L532.44 204.8L532.83 205.15L533.22 205.52L533.59 205.91L533.94 206.3L534.28 206.71L534.61 207.14L534.91 207.58L535.21 208.03L535.48 208.49L535.74 208.96L535.97 209.44L536.2 209.93L536.4 210.44L536.58 210.95L536.74 211.47L536.88 212L537.01 212.54L537.11 213.08L537.18 213.64L537.24 214.19L537.28 214.76L537.29 215.33L537.29 364.31L537.28 364.88L537.24 365.44L537.18 366L537.11 366.56L537.01 367.1L536.88 367.64L536.74 368.17L536.58 368.69L536.4 369.2L536.2 369.7L535.98 370.2L535.74 370.68L535.48 371.15L535.21 371.61L534.92 372.06L534.61 372.5L534.28 372.92L533.94 373.33L533.59 373.73L533.22 374.11L532.84 374.48L532.44 374.84L532.03 375.18L531.6 375.5L531.17 375.81L530.72 376.1L530.26 376.38L529.79 376.63L529.3 376.87L528.81 377.09L528.31 377.29L527.79 377.47L527.27 377.64L526.74 377.78L526.21 377.9L525.66 378L525.11 378.08L524.55 378.14L523.98 378.17L523.41 378.18L463.58 378.18L463.58 380.52L449.48 380.52L449.48 394.73L449.48 395.34L449.46 395.94L449.43 396.53L449.38 397.11L449.32 397.69L449.25 398.26L449.16 398.82L449.06 399.38L448.95 399.92L448.82 400.45L448.68 400.97L448.52 401.48L448.35 401.98L448.16 402.47L447.96 402.95L447.75 403.41L447.52 403.86L447.28 404.29L447.02 404.72L446.74 405.12L446.45 405.51L446.15 405.89L445.83 406.25L445.49 406.59L445.14 406.92L444.77 407.22L444.39 407.51L443.99 407.79L443.58 408.04L443.15 408.27L442.7 408.48L442.23 408.68L441.75 408.85L441.26 409L440.74 409.13L440.21 409.23L439.66 409.32L439.1 409.38L438.51 409.41L437.91 409.43L149.66 409.43L149.06 409.41L148.48 409.38L147.91 409.32L147.36 409.23L146.83 409.13L146.32 409L145.82 408.85L145.34 408.68L144.87 408.48L144.43 408.27L143.99 408.04L143.58 407.79L143.18 407.51L142.8 407.22L142.43 406.92L142.08 406.59L141.74 406.25L141.42 405.89L141.12 405.51L140.83 405.12L140.55 404.72L140.3 404.29L140.05 403.86L139.82 403.41L139.61 402.95L139.41 402.47L139.22 401.98L139.05 401.48L138.9 400.97L138.75 400.45L138.62 399.92L138.51 399.38L138.41 398.82L138.32 398.26L138.25 397.69L138.19 397.11L138.15 396.53L138.11 395.94L138.09 395.34L138.09 394.73L138.09 344.43L138.15 340.42L138.35 336.44L138.67 332.49L139.12 328.59L139.69 324.72L140.37 320.89L141.18 317.1L142.1 313.36L143.13 309.66L144.28 306.01L145.54 302.41L146.9 298.86L148.37 295.37L149.94 291.93L151.62 288.56L153.4 285.24L155.27 281.98L157.24 278.79L159.31 275.66L161.46 272.6L163.71 269.61L166.05 266.7L168.47 263.85L170.97 261.09L173.56 258.4L176.23 255.79L178.98 253.26L181.8 250.81L184.7 248.45L187.67 246.18L190.71 244L193.81 241.91L196.99 239.92L200.23 238.01L203.53 236.21L206.89 234.51L210.31 232.9L213.79 231.41L217.32 230.01L220.91 228.73L221.41 227.2L221.95 225.69L222.51 224.19L223.11 222.71L223.73 221.24L224.38 219.79L225.07 218.35L225.78 216.94L226.52 215.54L227.29 214.15L228.09 212.79L228.91 211.44L229.76 210.11L230.64 208.8L231.54 207.51L232.47 206.24L233.42 204.99L234.4 203.75L235.4 202.54L236.43 201.36L237.48 200.19L238.56 199.04L239.66 197.92L240.78 196.82L241.92 195.74L243.09 194.69L244.27 193.66L245.48 192.65L246.71 191.67L247.96 190.71L249.23 189.78L250.52 188.87L251.82 187.99L253.15 187.14L254.5 186.31L255.86 185.51L257.24 184.74L258.64 184L260.06 183.28L261.49 182.59L206.61 182.59L206.61 224.77L206.6 225.13L206.58 225.5L206.54 225.86L206.49 226.21L206.43 226.56L206.35 226.9L206.26 227.24L206.15 227.58L206.04 227.91L205.91 228.23L205.77 228.54L205.61 228.85L205.45 229.16L205.27 229.45L205.09 229.74L204.89 230.02L204.68 230.29L204.47 230.56L204.24 230.81L204 231.06L203.76 231.29L203.5 231.52L203.24 231.74L202.97 231.95L202.69 232.14L202.4 232.33L202.1 232.5L201.8 232.67L201.49 232.82L201.17 232.96L200.85 233.09L200.52 233.21L200.19 233.31L199.85 233.4L199.51 233.48L199.16 233.54L198.8 233.6L198.44 233.63L198.08 233.65L197.71 233.66L111.61 233.66L111.24 233.65L110.88 233.63L110.52 233.6L110.17 233.54L109.82 233.48L109.47 233.4L109.13 233.31L108.8 233.21L108.47 233.09L108.15 232.96L107.83 232.82L107.52 232.67L107.22 232.5L106.93 232.33L106.64 232.14L106.36 231.95L106.09 231.74L105.82 231.52L105.57 231.29L105.32 231.06L105.09 230.81L104.86 230.56L104.64 230.29L104.43 230.02L104.24 229.74L104.05 229.45L103.87 229.16L103.71 228.85L103.56 228.54L103.42 228.23L103.29 227.91L103.17 227.58L103.07 227.24L102.98 226.9L102.9 226.56L102.83 226.21L102.78 225.86L102.75 225.5L102.72 225.13L102.72 224.77L102.72 182.59L102.78 179.3L102.98 176.03L103.31 172.8L103.76 169.61L104.34 166.47L105.04 163.36L105.86 160.31L106.8 157.3L107.85 154.34L109.01 151.44L110.27 148.6L111.65 145.82L113.13 143.09L114.71 140.44L116.38 137.85L118.16 135.33L120.02 132.88L121.98 130.51L124.02 128.22L126.15 126L128.37 123.87L130.66 121.83L133.03 119.87L135.48 118L138 116.23L140.59 114.55L143.24 112.97L145.96 111.5L148.75 110.12L151.59 108.85L154.49 107.69L157.45 106.64L160.45 105.71L163.51 104.89L166.61 104.19L169.76 103.61L172.95 103.16L176.18 102.83L179.44 102.63L182.74 102.56L404.81 102.56L408.11 102.63L411.38 102.83ZM327.51 183.29L328.93 184L330.32 184.75L331.71 185.52L333.07 186.32L334.42 187.15L335.74 188L337.05 188.88L338.34 189.78L339.61 190.72L340.86 191.67L342.09 192.65L343.29 193.66L344.48 194.69L345.65 195.75L346.79 196.82L347.91 197.92L349.01 199.05L350.08 200.19L351.13 201.36L352.16 202.55L353.16 203.76L354.14 204.99L355.1 206.24L356.03 207.51L356.93 208.8L357.81 210.11L358.66 211.44L359.48 212.79L360.28 214.16L361.04 215.54L361.79 216.94L362.5 218.36L363.18 219.79L363.84 221.25L364.46 222.71L365.06 224.19L365.62 225.69L366.16 227.2L366.66 228.73L370.24 230.02L373.78 231.41L377.25 232.91L380.67 234.51L384.04 236.22L387.34 238.02L390.58 239.92L393.75 241.92L396.86 244.01L399.9 246.19L402.87 248.46L405.77 250.82L408.59 253.26L411.34 255.79L414 258.4L416.59 261.09L419.1 263.86L421.52 266.7L423.85 269.62L426.1 272.61L428.26 275.67L430.32 278.79L432.29 281.99L434.17 285.24L435.94 288.56L437.62 291.94L439.2 295.38L440.67 298.87L442.03 302.42L443.29 306.01L444.43 309.66L445.47 313.36L446.39 317.1L447.19 320.89L447.88 324.72L448.45 328.59L448.89 332.5L449.22 336.44L449.41 340.42L449.48 344.43L449.48 372.33L463.58 372.33L463.58 373.8L523.41 373.8L523.67 373.8L523.93 373.78L524.19 373.75L524.44 373.71L524.7 373.65L524.96 373.59L525.21 373.51L525.46 373.42L525.71 373.32L525.96 373.21L526.21 373.08L526.46 372.95L526.71 372.8L526.95 372.64L527.19 372.47L527.44 372.28L527.68 372.09L527.92 371.88L528.16 371.66L528.4 371.43L528.63 371.19L528.87 370.93L529.1 370.66L529.33 370.39L529.57 370.09L529.8 369.79L530.03 369.48L530.25 369.15L530.48 368.81L530.71 368.46L530.93 368.1L531.15 367.73L531.38 367.34L531.6 366.95L531.82 366.54L532.03 366.12L532.25 365.68L532.47 365.24L532.68 364.78L532.89 364.31L532.89 215.33L532.89 214.94L532.86 214.55L532.82 214.17L532.77 213.79L532.7 213.42L532.62 213.05L532.52 212.69L532.41 212.34L532.29 211.99L532.15 211.64L532 211.3L531.83 210.97L531.66 210.65L531.47 210.34L531.27 210.03L531.06 209.73L530.84 209.44L530.61 209.16L530.37 208.89L530.11 208.63L529.85 208.37L529.58 208.13L529.3 207.9L529.01 207.68L528.71 207.47L528.4 207.27L528.09 207.08L527.76 206.9L527.43 206.74L527.1 206.59L526.75 206.45L526.4 206.33L526.05 206.22L525.68 206.12L525.32 206.04L524.94 205.97L524.57 205.91L524.18 205.88L523.8 205.85L523.41 205.84L498.94 205.84L498.94 207.53L484.84 207.53L484.84 224.77L484.84 225.13L484.81 225.5L484.78 225.86L484.73 226.21L484.66 226.56L484.58 226.9L484.49 227.24L484.39 227.58L484.27 227.91L484.14 228.23L484 228.54L483.85 228.85L483.69 229.16L483.51 229.45L483.32 229.74L483.13 230.02L482.92 230.29L482.7 230.56L482.47 230.81L482.24 231.06L481.99 231.29L481.74 231.52L481.47 231.74L481.2 231.95L480.92 232.14L480.63 232.33L480.34 232.5L480.04 232.67L479.73 232.82L479.41 232.96L479.09 233.09L478.76 233.21L478.43 233.31L478.09 233.4L477.74 233.48L477.39 233.54L477.04 233.6L476.68 233.63L476.32 233.65L475.95 233.66L389.85 233.66L389.48 233.65L389.12 233.63L388.76 233.6L388.4 233.54L388.06 233.48L387.71 233.4L387.37 233.31L387.04 233.21L386.71 233.09L386.39 232.96L386.07 232.82L385.76 232.67L385.46 232.5L385.16 232.33L384.88 232.14L384.6 231.95L384.32 231.74L384.06 231.52L383.81 231.29L383.56 231.06L383.32 230.81L383.09 230.56L382.88 230.29L382.67 230.02L382.47 229.74L382.29 229.45L382.11 229.16L381.95 228.85L381.79 228.54L381.65 228.23L381.52 227.91L381.41 227.58L381.3 227.24L381.21 226.9L381.13 226.56L381.07 226.21L381.02 225.86L380.98 225.5L380.96 225.13L380.95 224.77L380.95 182.6L326.08 182.6L327.51 183.29ZM291.2 296.21L289.97 296.55L288.81 297.01L287.7 297.58L286.67 298.26L285.71 299.04L284.84 299.91L284.06 300.87L283.38 301.9L282.81 303L282.35 304.17L282.02 305.39L281.81 306.67L281.74 307.98L281.81 309.29L282.02 310.56L282.35 311.78L282.81 312.95L283.38 314.06L284.06 315.09L284.84 316.05L285.71 316.92L286.67 317.7L287.7 318.38L288.81 318.95L289.97 319.41L291.2 319.74L292.47 319.95L293.78 320.02L295.09 319.95L296.36 319.74L297.58 319.41L298.75 318.95L299.86 318.38L300.89 317.7L301.85 316.92L302.72 316.04L303.5 315.09L304.18 314.05L304.75 312.95L305.21 311.78L305.54 310.56L305.75 309.29L305.82 307.98L305.75 306.67L305.54 305.39L305.21 304.17L304.75 303L304.18 301.9L303.5 300.87L302.72 299.91L301.85 299.04L300.89 298.26L299.86 297.58L298.75 297.01L297.59 296.55L296.36 296.21L295.09 296.01L293.78 295.94L292.47 296.01L291.2 296.21ZM323.09 285.78L321.9 286.23L320.75 286.81L319.65 287.52L318.63 288.35L317.72 289.27L316.93 290.26L316.25 291.32L315.7 292.43L315.26 293.59L314.94 294.78L314.75 296L314.68 297.23L314.74 298.46L314.92 299.69L315.24 300.91L315.69 302.09L316.27 303.24L316.98 304.35L317.81 305.37L318.72 306.28L319.71 307.07L320.77 307.74L321.88 308.3L323.04 308.74L324.23 309.05L325.45 309.25L326.68 309.31L327.92 309.26L329.15 309.07L330.36 308.75L331.55 308.31L332.7 307.73L333.8 307.02L334.82 306.19L335.73 305.27L336.52 304.28L337.2 303.22L337.75 302.11L338.19 300.95L338.51 299.76L338.7 298.54L338.77 297.31L338.71 296.08L338.52 294.85L338.21 293.63L337.76 292.44L337.18 291.29L336.47 290.19L335.64 289.17L334.72 288.26L333.73 287.47L332.68 286.8L331.56 286.24L330.41 285.8L329.22 285.49L328 285.29L326.77 285.23L325.53 285.28L324.3 285.47L323.09 285.78ZM258.34 285.49L257.15 285.8L255.99 286.24L254.88 286.8L253.83 287.47L252.83 288.26L251.92 289.17L251.09 290.19L250.38 291.29L249.8 292.44L249.35 293.63L249.04 294.85L248.85 296.08L248.79 297.31L248.86 298.54L249.05 299.76L249.37 300.95L249.81 302.11L250.36 303.22L251.04 304.28L251.83 305.27L252.74 306.19L253.76 307.02L254.86 307.73L256.01 308.31L257.2 308.75L258.41 309.07L259.64 309.26L260.88 309.31L262.11 309.25L263.32 309.05L264.52 308.74L265.67 308.3L266.79 307.74L267.84 307.07L268.83 306.28L269.75 305.37L270.58 304.35L271.29 303.24L271.87 302.09L272.32 300.91L272.63 299.69L272.82 298.46L272.88 297.23L272.81 296L272.62 294.78L272.3 293.59L271.87 292.43L271.31 291.32L270.63 290.26L269.84 289.27L268.93 288.35L267.91 287.52L266.81 286.81L265.66 286.23L264.47 285.78L263.26 285.47L262.03 285.28L260.79 285.23L259.56 285.29L258.34 285.49ZM291.07 219.09L289.74 219.22L288.43 219.41L287.14 219.65L285.86 219.93L284.6 220.27L283.36 220.66L282.14 221.09L280.95 221.57L279.78 222.09L278.63 222.65L277.51 223.26L276.42 223.91L275.35 224.6L274.32 225.33L273.31 226.1L272.33 226.91L271.39 227.75L270.48 228.63L269.6 229.54L268.76 230.48L267.95 231.46L267.18 232.47L266.45 233.5L265.76 234.57L265.11 235.66L264.51 236.78L263.94 237.93L263.42 239.1L262.94 240.29L262.51 241.51L262.12 242.75L261.79 244.01L261.5 245.28L261.26 246.58L261.07 247.89L260.94 249.22L260.86 250.57L260.83 251.92L260.86 253.28L260.94 254.63L261.07 255.96L261.26 257.27L261.5 258.56L261.79 259.84L262.12 261.1L262.51 262.34L262.94 263.56L263.42 264.75L263.94 265.92L264.51 267.07L265.11 268.19L265.76 269.28L266.45 270.35L267.18 271.38L267.95 272.39L268.76 273.37L269.6 274.31L270.48 275.22L271.39 276.1L272.33 276.94L273.31 277.75L274.32 278.51L275.35 279.24L276.42 279.94L277.51 280.59L278.63 281.19L279.78 281.76L280.95 282.28L282.14 282.76L283.36 283.19L284.6 283.58L285.86 283.91L287.14 284.2L288.43 284.44L289.74 284.63L291.07 284.76L292.42 284.84L293.78 284.87L295.13 284.84L296.48 284.76L297.81 284.63L299.12 284.44L300.42 284.2L301.69 283.91L302.95 283.58L304.19 283.19L305.41 282.76L306.6 282.28L307.77 281.76L308.92 281.19L310.04 280.59L311.13 279.94L312.2 279.24L313.23 278.51L314.24 277.75L315.22 276.94L316.16 276.1L317.07 275.22L317.95 274.31L318.79 273.37L319.6 272.39L320.37 271.38L321.1 270.35L321.79 269.28L322.44 268.19L323.05 267.07L323.61 265.92L324.13 264.75L324.61 263.56L325.04 262.34L325.43 261.1L325.77 259.84L326.05 258.56L326.29 257.27L326.48 255.96L326.61 254.63L326.7 253.28L326.72 251.92L326.7 250.57L326.61 249.22L326.48 247.89L326.29 246.58L326.05 245.28L325.77 244.01L325.43 242.75L325.04 241.51L324.61 240.29L324.13 239.1L323.61 237.93L323.05 236.78L322.44 235.66L321.79 234.57L321.1 233.5L320.37 232.47L319.6 231.46L318.79 230.48L317.95 229.54L317.07 228.63L316.16 227.75L315.22 226.91L314.24 226.1L313.23 225.33L312.2 224.6L311.13 223.91L310.04 223.26L308.92 222.65L307.77 222.09L306.6 221.57L305.41 221.09L304.19 220.66L302.95 220.27L301.69 219.93L300.42 219.65L299.12 219.41L297.81 219.22L296.48 219.09L295.13 219L293.78 218.98L292.42 219L291.07 219.09ZM238.02 257.45L236.75 257.79L235.52 258.27L234.38 258.86L233.32 259.55L232.35 260.35L231.48 261.23L230.7 262.2L230.04 263.24L229.48 264.33L229.03 265.48L228.7 266.68L228.5 267.91L228.43 269.16L228.48 270.42L228.68 271.7L229.02 272.97L229.49 274.19L230.08 275.34L230.78 276.4L231.57 277.37L232.46 278.24L233.43 279.01L234.46 279.68L235.56 280.24L236.71 280.69L237.9 281.01L239.13 281.22L240.38 281.29L241.65 281.23L242.92 281.04L244.19 280.7L245.42 280.23L246.57 279.64L247.62 278.94L248.59 278.14L249.47 277.26L250.24 276.29L250.91 275.25L251.47 274.16L251.91 273.01L252.24 271.81L252.44 270.59L252.52 269.33L252.46 268.07L252.26 266.79L251.92 265.52L251.45 264.3L250.86 263.15L250.17 262.09L249.37 261.13L248.48 260.25L247.52 259.48L246.48 258.81L245.38 258.25L244.23 257.81L243.04 257.48L241.81 257.28L240.56 257.2L239.29 257.26L238.02 257.45ZM344.52 257.48L343.32 257.81L342.17 258.25L341.08 258.81L340.04 259.48L339.07 260.25L338.19 261.13L337.39 262.09L336.69 263.15L336.1 264.3L335.63 265.52L335.29 266.79L335.1 268.07L335.04 269.33L335.11 270.59L335.32 271.81L335.64 273.01L336.09 274.16L336.65 275.26L337.32 276.29L338.09 277.26L338.96 278.14L339.93 278.94L340.99 279.64L342.14 280.23L343.36 280.7L344.63 281.04L345.9 281.23L347.17 281.29L348.42 281.22L349.65 281.01L350.84 280.69L351.99 280.24L353.09 279.68L354.13 279.01L355.09 278.24L355.98 277.37L356.78 276.4L357.47 275.34L358.06 274.19L358.54 272.97L358.88 271.7L359.07 270.43L359.13 269.16L359.06 267.91L358.85 266.68L358.53 265.49L358.08 264.33L357.52 263.24L356.85 262.2L356.08 261.23L355.21 260.35L354.24 259.55L353.18 258.85L352.03 258.26L350.81 257.79L349.54 257.45L348.26 257.26L347 257.2L345.74 257.28L344.52 257.48ZM344.63 222.81L343.36 223.15L342.14 223.62L340.99 224.21L339.93 224.91L338.96 225.71L338.09 226.59L337.32 227.56L336.65 228.59L336.09 229.69L335.64 230.84L335.32 232.03L335.11 233.26L335.04 234.51L335.1 235.78L335.29 237.06L335.63 238.33L336.1 239.55L336.69 240.7L337.39 241.76L338.19 242.72L339.08 243.6L340.04 244.37L341.08 245.04L342.18 245.6L343.33 246.04L344.52 246.37L345.75 246.57L347 246.65L348.26 246.59L349.54 246.39L350.81 246.06L352.03 245.58L353.18 244.99L354.24 244.3L355.2 243.5L356.08 242.61L356.85 241.65L357.52 240.61L358.08 239.51L358.52 238.36L358.85 237.17L359.05 235.94L359.13 234.69L359.07 233.42L358.88 232.15L358.54 230.88L358.07 229.66L357.48 228.51L356.78 227.45L355.98 226.48L355.1 225.61L354.13 224.84L353.09 224.17L352 223.61L350.84 223.16L349.65 222.84L348.42 222.63L347.17 222.56L345.9 222.62L344.63 222.81ZM237.9 222.83L236.71 223.16L235.56 223.61L234.46 224.17L233.43 224.83L232.46 225.61L231.57 226.48L230.78 227.45L230.08 228.51L229.49 229.65L229.02 230.88L228.68 232.15L228.48 233.42L228.43 234.69L228.5 235.94L228.7 237.17L229.03 238.36L229.48 239.51L230.04 240.61L230.7 241.65L231.48 242.61L232.35 243.5L233.32 244.29L234.38 244.99L235.52 245.58L236.75 246.05L238.02 246.39L239.29 246.59L240.56 246.65L241.81 246.57L243.04 246.37L244.23 246.04L245.38 245.6L246.48 245.04L247.52 244.37L248.48 243.59L249.37 242.72L250.16 241.75L250.86 240.69L251.45 239.55L251.92 238.32L252.26 237.05L252.46 235.78L252.52 234.51L252.44 233.26L252.24 232.03L251.91 230.84L251.47 229.69L250.91 228.59L250.24 227.55L249.47 226.59L248.59 225.7L247.62 224.91L246.56 224.21L245.42 223.62L244.19 223.14L242.92 222.81L241.65 222.61L240.38 222.56L239.13 222.63L237.9 222.83ZM258.41 194.78L257.2 195.09L256.01 195.54L254.86 196.12L253.76 196.83L252.74 197.66L251.83 198.58L251.04 199.57L250.36 200.62L249.81 201.74L249.37 202.89L249.05 204.09L248.86 205.3L248.79 206.54L248.85 207.77L249.04 209L249.35 210.22L249.8 211.4L250.38 212.55L251.1 213.66L251.92 214.68L252.84 215.58L253.83 216.38L254.88 217.05L256 217.61L257.15 218.05L258.35 218.36L259.56 218.55L260.79 218.62L262.03 218.56L263.26 218.38L264.47 218.06L265.66 217.61L266.81 217.03L267.91 216.32L268.93 215.49L269.84 214.58L270.63 213.59L271.31 212.53L271.86 211.42L272.3 210.26L272.62 209.07L272.81 207.85L272.88 206.62L272.82 205.38L272.63 204.15L272.32 202.94L271.87 201.75L271.29 200.6L270.58 199.5L269.75 198.48L268.83 197.57L267.84 196.78L266.79 196.1L265.68 195.54L264.52 195.11L263.33 194.79L262.11 194.6L260.88 194.53L259.64 194.59L258.41 194.78ZM324.23 194.8L323.04 195.11L321.88 195.55L320.77 196.11L319.71 196.78L318.72 197.57L317.81 198.48L316.98 199.5L316.27 200.6L315.69 201.75L315.24 202.94L314.92 204.15L314.74 205.38L314.68 206.62L314.75 207.85L314.94 209.07L315.26 210.26L315.69 211.42L316.25 212.53L316.93 213.59L317.72 214.58L318.62 215.49L319.64 216.32L320.75 217.03L321.9 217.61L323.08 218.06L324.3 218.38L325.53 218.56L326.76 218.62L328 218.55L329.21 218.36L330.41 218.05L331.56 217.61L332.67 217.05L333.73 216.38L334.72 215.58L335.64 214.68L336.47 213.66L337.18 212.55L337.76 211.4L338.21 210.22L338.52 209L338.71 207.77L338.77 206.54L338.7 205.31L338.51 204.09L338.19 202.9L337.75 201.74L337.2 200.63L336.52 199.57L335.73 198.58L334.82 197.67L333.8 196.84L332.7 196.12L331.55 195.54L330.36 195.1L329.15 194.78L327.92 194.59L326.68 194.54L325.45 194.6L324.23 194.8ZM291.2 184.11L289.97 184.44L288.81 184.9L287.7 185.47L286.67 186.15L285.71 186.93L284.84 187.8L284.06 188.76L283.38 189.79L282.81 190.9L282.35 192.06L282.02 193.29L281.81 194.56L281.74 195.87L281.81 197.18L282.02 198.45L282.35 199.68L282.81 200.84L283.38 201.95L284.06 202.98L284.84 203.94L285.71 204.81L286.67 205.59L287.7 206.27L288.81 206.84L289.97 207.3L291.2 207.64L292.47 207.84L293.78 207.91L295.09 207.84L296.36 207.64L297.59 207.3L298.75 206.84L299.86 206.27L300.89 205.59L301.85 204.81L302.72 203.94L303.5 202.98L304.18 201.95L304.75 200.84L305.21 199.68L305.54 198.45L305.75 197.18L305.82 195.87L305.75 194.56L305.54 193.29L305.21 192.06L304.75 190.9L304.18 189.79L303.5 188.76L302.72 187.8L301.85 186.93L300.89 186.15L299.86 185.47L298.75 184.9L297.59 184.44L296.36 184.11L295.09 183.9L293.78 183.83L292.47 183.9L291.2 184.11Z" id="bYTjlX53K"></path></defs><g><g><use xlink:href="#bYTjlX53K" opacity="1" fill="#000000" fill-opacity="1"></use><g><use xlink:href="#bYTjlX53K" opacity="1" fill-opacity="0" stroke="#000000" stroke-width="1" stroke-opacity="0"></use></g></g></g></svg>